# Blender v2.90.0 OBJ File: 'Post.blend'
# www.blender.org
o Cylinder
v 0.000000 -2.000000 -0.400000
v 0.000000 0.000000 -0.400000
v 0.235114 -2.000000 -0.323607
v 0.235114 0.000000 -0.323607
v 0.380423 -2.000000 -0.123607
v 0.380423 0.000000 -0.123607
v 0.380423 -2.000000 0.123607
v 0.380423 0.000000 0.123607
v 0.235114 -2.000000 0.323607
v 0.235114 0.000000 0.323607
v -0.000000 -2.000000 0.400000
v -0.000000 0.000000 0.400000
v -0.235114 -2.000000 0.323607
v -0.235114 0.000000 0.323607
v -0.380423 -2.000000 0.123607
v -0.380423 0.000000 0.123607
v -0.380423 -2.000000 -0.123607
v -0.380423 0.000000 -0.123607
v -0.235114 -2.000000 -0.323607
v -0.235114 0.000000 -0.323607
vt 0.216044 0.430755
vt 0.783196 0.430734
vt 0.783199 0.500837
vt 0.216047 0.500860
vt 0.783202 0.570941
vt 0.216050 0.570964
vt 0.783205 0.641045
vt 0.216052 0.641068
vt 0.783207 0.711149
vt 0.216055 0.711173
vt 0.783211 0.781253
vt 0.216058 0.781277
vt 0.216031 0.080235
vt 0.783183 0.080214
vt 0.783185 0.150318
vt 0.216034 0.150339
vt 0.783188 0.220422
vt 0.216036 0.220443
vt 0.783191 0.290526
vt 0.216039 0.290547
vt 0.957757 0.654426
vt 0.998965 0.711140
vt 0.998968 0.781244
vt 0.957764 0.837961
vt 0.891093 0.859627
vt 0.824419 0.837966
vt 0.824411 0.654432
vt 0.891083 0.632766
vt 0.783193 0.360630
vt 0.216041 0.360652
vt 0.000274 0.150347
vt 0.000272 0.080243
vt 0.041476 0.023526
vt 0.108149 0.001860
vt 0.174823 0.023521
vt 0.174829 0.207056
vt 0.108157 0.228722
vt 0.041483 0.207061
vn 0.3090 0.0000 -0.9511
vn 0.8090 0.0000 -0.5878
vn 1.0000 0.0000 0.0000
vn 0.8090 0.0000 0.5878
vn 0.3090 0.0000 0.9511
vn -0.3090 0.0000 0.9511
vn -0.8090 0.0000 0.5878
vn -1.0000 0.0000 0.0000
vn 0.0000 1.0000 0.0000
vn -0.8090 0.0000 -0.5878
vn -0.3090 0.0000 -0.9511
vn 0.0000 -1.0000 0.0000
s off
f 1/1/1 2/2/1 4/3/1 3/4/1
f 3/4/2 4/3/2 6/5/2 5/6/2
f 5/6/3 6/5/3 8/7/3 7/8/3
f 7/8/4 8/7/4 10/9/4 9/10/4
f 9/10/5 10/9/5 12/11/5 11/12/5
f 11/13/6 12/14/6 14/15/6 13/16/6
f 13/16/7 14/15/7 16/17/7 15/18/7
f 15/18/8 16/17/8 18/19/8 17/20/8
f 4/21/9 2/22/9 20/23/9 18/24/9 16/25/9 14/26/9 12/11/9 10/9/9 8/27/9 6/28/9
f 17/20/10 18/19/10 20/29/10 19/30/10
f 19/30/11 20/29/11 2/2/11 1/1/11
f 1/31/12 3/32/12 5/33/12 7/34/12 9/35/12 11/13/12 13/16/12 15/36/12 17/37/12 19/38/12
